<svg width="32" height="32" viewBox="0 0 32 32" fill="none" xmlns="http://www.w3.org/2000/svg">
    <g id="email">
        <path d="M5.07187 9.20292C5.2168 8.57709 5.57307 8.01832 6.08232 7.6181C6.59158 7.21789 7.22365 6.99996 7.875 7H25.125C25.7764 6.99996 26.4084 7.21789 26.9177 7.6181C27.4269 8.01832 27.7832 8.57709 27.9281 9.20292L16.5 16.0865L5.07187 9.20292ZM5 10.8207V20.8847L13.3418 15.8442L5 10.8207ZM14.7189 16.6758L5.27456 22.3807C5.50791 22.8657 5.87619 23.2753 6.33656 23.5619C6.79693 23.8486 7.33044 24.0005 7.875 24H25.125C25.6695 24.0001 26.2028 23.8479 26.6629 23.561C27.123 23.274 27.491 22.8643 27.724 22.3793L18.2796 16.6744L16.5 17.7468L14.7189 16.6744V16.6758ZM19.6582 15.8457L28 20.8847V10.8207L19.6582 15.8442V15.8457Z"
              fill="#ABB2BF"/>
    </g>
    <g id="github">
        <path d="M15.5 6C9.69875 6 5 10.5882 5 16.2529C5 20.7899 8.00562 24.6219 12.1794 25.9804C12.7044 26.0701 12.9012 25.7625 12.9012 25.4934C12.9012 25.2499 12.8881 24.4425 12.8881 23.5838C10.25 24.058 9.5675 22.9558 9.3575 22.3791C9.23938 22.0843 8.7275 21.1743 8.28125 20.9308C7.91375 20.7386 7.38875 20.2644 8.26813 20.2516C9.095 20.2388 9.68563 20.9949 9.8825 21.3025C10.8275 22.8533 12.3369 22.4175 12.9406 22.1484C13.0325 21.4819 13.3081 21.0334 13.61 20.777C11.2737 20.5207 8.8325 19.6364 8.8325 15.7147C8.8325 14.5997 9.23938 13.6769 9.90875 12.9592C9.80375 12.7029 9.43625 11.6519 10.0138 10.2422C10.0138 10.2422 10.8931 9.97301 12.9012 11.2931C13.7413 11.0624 14.6338 10.947 15.5263 10.947C16.4188 10.947 17.3113 11.0624 18.1513 11.2931C20.1594 9.9602 21.0387 10.2422 21.0387 10.2422C21.6163 11.6519 21.2488 12.7029 21.1438 12.9592C21.8131 13.6769 22.22 14.5868 22.22 15.7147C22.22 19.6492 19.7656 20.5207 17.4294 20.777C17.81 21.0975 18.1381 21.7126 18.1381 22.6738C18.1381 24.0452 18.125 25.1474 18.125 25.4934C18.125 25.7625 18.3219 26.0829 18.8469 25.9804C20.9314 25.2935 22.7428 23.9854 24.026 22.2403C25.3092 20.4953 25.9996 18.4012 26 16.2529C26 10.5882 21.3013 6 15.5 6Z"
              fill="#ABB2BF"/>
    </g>
    <g id="telegram">
        <path d="M27 15.5C27 18.55 25.7884 21.4751 23.6317 23.6317C21.4751 25.7884 18.55 27 15.5 27C12.45 27 9.52494 25.7884 7.36827 23.6317C5.2116 21.4751 4 18.55 4 15.5C4 12.45 5.2116 9.52494 7.36827 7.36827C9.52494 5.2116 12.45 4 15.5 4C18.55 4 21.4751 5.2116 23.6317 7.36827C25.7884 9.52494 27 12.45 27 15.5ZM15.9126 12.4899C14.7942 12.9556 12.5574 13.9187 9.20519 15.3792C8.66181 15.5949 8.37575 15.8076 8.34987 16.0146C8.30675 16.3639 8.74519 16.5019 9.34175 16.6903L9.59331 16.7693C10.1798 16.9605 10.9704 17.1833 11.3801 17.1919C11.7539 17.2006 12.1693 17.0482 12.6279 16.7319C15.7602 14.6174 17.3774 13.5493 17.478 13.5263C17.5499 13.5091 17.6505 13.4889 17.7166 13.5493C17.7842 13.6083 17.777 13.7218 17.7698 13.752C17.7267 13.9374 16.006 15.5359 15.1162 16.3639C14.8387 16.6227 14.6418 16.8053 14.6016 16.8469C14.5129 16.9375 14.4228 17.0267 14.3313 17.1143C13.7851 17.6404 13.3768 18.0343 14.3529 18.6783C14.8229 18.9888 15.1996 19.2432 15.5747 19.4991C15.983 19.778 16.3912 20.0554 16.9202 20.4033C17.0539 20.4896 17.1833 20.583 17.3084 20.6721C17.7842 21.0114 18.214 21.3161 18.7416 21.2673C19.0492 21.2385 19.3669 20.951 19.5279 20.0885C19.9088 18.0516 20.6578 13.6399 20.8302 11.8214C20.8408 11.6703 20.8345 11.5184 20.8116 11.3686C20.798 11.2478 20.7395 11.1364 20.6477 11.0567C20.5169 10.9664 20.361 10.9196 20.2021 10.923C19.7708 10.9302 19.1052 11.1616 15.9126 12.4899Z"
              fill="#ABB2BF"/>
    </g>
    <g id="dots">
        <circle cx="2" cy="2" r="2" fill="#ABB2BF"/>
        <circle cx="22" cy="2" r="2" fill="#ABB2BF"/>
        <circle cx="42" cy="2" r="2" fill="#ABB2BF"/>
        <circle cx="62" cy="2" r="2" fill="#ABB2BF"/>
        <circle cx="82" cy="2" r="2" fill="#ABB2BF"/>
        <circle cx="2" cy="22" r="2" fill="#ABB2BF"/>
        <circle cx="22" cy="22" r="2" fill="#ABB2BF"/>
        <circle cx="42" cy="22" r="2" fill="#ABB2BF"/>
        <circle cx="62" cy="22" r="2" fill="#ABB2BF"/>
        <circle cx="82" cy="22" r="2" fill="#ABB2BF"/>
        <circle cx="2" cy="42" r="2" fill="#ABB2BF"/>
        <circle cx="22" cy="42" r="2" fill="#ABB2BF"/>
        <circle cx="42" cy="42" r="2" fill="#ABB2BF"/>
        <circle cx="62" cy="42" r="2" fill="#ABB2BF"/>
        <circle cx="82" cy="42" r="2" fill="#ABB2BF"/>
        <circle cx="2" cy="62" r="2" fill="#ABB2BF"/>
        <circle cx="22" cy="62" r="2" fill="#ABB2BF"/>
        <circle cx="42" cy="62" r="2" fill="#ABB2BF"/>
        <circle cx="62" cy="62" r="2" fill="#ABB2BF"/>
        <circle cx="82" cy="62" r="2" fill="#ABB2BF"/>
        <circle cx="2" cy="82" r="2" fill="#ABB2BF"/>
        <circle cx="22" cy="82" r="2" fill="#ABB2BF"/>
        <circle cx="42" cy="82" r="2" fill="#ABB2BF"/>
        <circle cx="62" cy="82" r="2" fill="#ABB2BF"/>
        <circle cx="82" cy="82" r="2" fill="#ABB2BF"/>
    </g>
    <g id="rect1">
        <path fill-rule="evenodd" clip-rule="evenodd" d="M39 0H26V13H13H0V26V39V52H13H26V39H39H52V26V13V0H39ZM13 39H26V26H39V13H26V26H13V39Z" fill="white"/>
    </g>
    <g id="rect2">
        <mask id="path-1-inside-1_1103_3692" fill="white">
            <path fill-rule="evenodd" clip-rule="evenodd" d="M0 39.75H38.75H77.5V78.5H38.75V117.25H77.5V156H38.75H0V117.25V78.5V39.75Z"/>
        </mask>
        <path d="M0 39.75V38.75H-1V39.75H0ZM77.5 39.75H78.5V38.75H77.5V39.75ZM77.5 78.5V79.5H78.5V78.5H77.5ZM38.75 78.5V77.5H37.75V78.5H38.75ZM38.75 117.25H37.75V118.25H38.75V117.25ZM77.5 117.25H78.5V116.25H77.5V117.25ZM77.5 156V157H78.5V156H77.5ZM0 156H-1V157H0V156ZM38.75 38.75H0V40.75H38.75V38.75ZM77.5 38.75H38.75V40.75H77.5V38.75ZM78.5 78.5V39.75H76.5V78.5H78.5ZM38.75 79.5H77.5V77.5H38.75V79.5ZM39.75 117.25V78.5H37.75V117.25H39.75ZM38.75 118.25H77.5V116.25H38.75V118.25ZM76.5 117.25V156H78.5V117.25H76.5ZM77.5 155H38.75V157H77.5V155ZM0 157H38.75V155H0V157ZM-1 117.25V156H1V117.25H-1ZM-1 78.5V117.25H1V78.5H-1ZM-1 39.75V78.5H1V39.75H-1Z" fill="#C778DD" mask="url(#path-1-inside-1_1103_3692)"/>
        <mask id="path-3-outside-2_1103_3692" maskUnits="userSpaceOnUse" x="76.5" y="0" width="80" height="119" fill="black">
            <rect fill="white" x="76.5" width="80" height="119"/>
            <path fill-rule="evenodd" clip-rule="evenodd" d="M77.5 1H116.25H155V39.75V78.5V117.25H116.25H77.5V78.5H116.25V39.75H77.5V1Z"/>
        </mask>
        <path d="M77.5 1V0H76.5V1H77.5ZM155 1H156V0H155V1ZM155 117.25V118.25H156V117.25H155ZM77.5 117.25H76.5V118.25H77.5V117.25ZM77.5 78.5V77.5H76.5V78.5H77.5ZM116.25 78.5V79.5H117.25V78.5H116.25ZM116.25 39.75H117.25V38.75H116.25V39.75ZM77.5 39.75H76.5V40.75H77.5V39.75ZM116.25 0H77.5V2H116.25V0ZM155 0H116.25V2H155V0ZM156 39.75V1H154V39.75H156ZM156 78.5V39.75H154V78.5H156ZM156 117.25V78.5H154V117.25H156ZM116.25 118.25H155V116.25H116.25V118.25ZM116.25 116.25H77.5V118.25H116.25V116.25ZM78.5 117.25V78.5H76.5V117.25H78.5ZM77.5 79.5H116.25V77.5H77.5V79.5ZM115.25 39.75V78.5H117.25V39.75H115.25ZM77.5 40.75H116.25V38.75H77.5V40.75ZM76.5 1V39.75H78.5V1H76.5Z" fill="#C778DD" mask="url(#path-3-outside-2_1103_3692)"/>
    </g>
    <g id="Logo">
        <path id="Union" fill-rule="evenodd" clip-rule="evenodd" d="M12 0.5H8V4.5H4H0V8.5V12.5V16.5H4H8V12.5H12H16V8.5V4.5V0.5H12ZM4 12.5H8V8.5H12V4.5H8V8.5H4V12.5Z" fill="white"/>
    </g>
    <g id="rectangle-23">
<!--  width="52" height="52" viewBox="0 0 52 52"-->
        <rect x="0.5" y="0.5" width="51" height="51" stroke="#ABB2BF"/>
    </g>
    <g id="rectangle-24" >
<!--             width="86" height="86" viewBox="0 0 86 86"-->
        <rect  x="0.5" y="0.5" width="85" height="85" stroke="#ABB2BF"/>
    </g>
</svg>
